<svg width="24" height="24" viewBox="0 0 24 24" fill="none" xmlns="http://www.w3.org/2000/svg">
<!-- <rect width="24" height="24" fill="white"/> -->
<path d="M20.4971 16.1271C20.4971 16.5388 20.1634 16.8725 19.7517 16.8725H13.716C13.3043 16.8725 12.9706 16.5388 12.9706 16.1271L12.9706 13.7016C12.9706 13.3744 13.2358 13.1092 13.563 13.1092C13.8885 13.1092 14.146 13.3755 14.2221 13.6921C14.4927 14.8181 15.5063 15.655 16.7154 15.655C18.1316 15.655 19.2796 14.5069 19.2796 13.0908C19.2796 11.6808 18.1415 10.5366 16.7339 10.5266C16.7339 10.5266 16.7338 10.5266 16.7338 10.5266C16.7338 10.5266 16.7338 10.5266 16.7338 10.5266L12.5202 10.5266C10.6905 10.5266 9.20728 9.04332 9.20728 7.21366L9.20728 3.7454C9.20728 3.33373 9.541 3 9.95268 3L15.9884 3C16.4001 3 16.7338 3.33373 16.7338 3.7454V6.17085C16.7338 6.49804 16.4686 6.76328 16.1414 6.76328C15.8158 6.76328 15.5584 6.49696 15.4823 6.18041C15.2117 5.05435 14.1981 4.21753 12.989 4.21753C11.5728 4.21753 10.4248 5.36556 10.4248 6.78173C10.4248 8.19173 11.5629 9.33592 12.9705 9.34586C12.9705 9.34586 12.9706 9.34587 12.9706 9.34589C12.9706 9.34591 12.9706 9.34592 12.9706 9.34592L19.7517 9.34592C20.1634 9.34592 20.4971 9.67965 20.4971 10.0913L20.4971 16.1271Z" fill="#3E04DB"/>
<path d="M16.9172 19.8108C16.9191 20.2225 16.5869 20.5577 16.1752 20.5596L11.1748 20.5825C10.1914 20.587 9.3905 19.7934 9.38599 18.81L9.35968 13.0642C9.35968 13.0642 9.35967 13.0642 9.35965 13.0642C9.35963 13.0642 9.35962 13.0642 9.35962 13.0642C9.34324 11.6566 8.19385 10.5237 6.78386 10.5302C5.36771 10.5367 4.22495 11.69 4.23143 13.1061C4.23697 14.3152 5.07842 15.325 6.20571 15.5904C6.5226 15.665 6.7901 15.9213 6.79159 16.2468C6.79308 16.574 6.52906 16.8405 6.20187 16.842L3.77645 16.8531C3.36478 16.855 3.02953 16.5228 3.02764 16.1111L3.00001 10.0754C2.99812 9.66372 3.33032 9.32847 3.74199 9.32658L7.21021 9.3107C9.03986 9.30233 10.5299 10.7788 10.5382 12.6084L10.5575 16.822C10.5575 16.822 10.5575 16.822 10.5575 16.822C10.5575 16.822 10.5576 16.822 10.5576 16.822C10.5576 16.822 10.5576 16.822 10.5576 16.8221C10.5736 18.1958 11.6687 19.3078 13.032 19.3545V19.3757H16.9152L16.9172 19.8108Z" fill="#3E04DB"/>
</svg>
