<svg width="24" height="24" viewBox="0 0 24 24" fill="none" xmlns="http://www.w3.org/2000/svg">
<rect width="24" height="24" fill="#3E04DB"/>
<path d="M19.0003 15.385C19.0003 15.7262 18.7237 16.0029 18.3824 16.0029H13.3796C13.0384 16.0029 12.7618 15.7262 12.7618 15.385L12.7618 13.3747C12.7618 13.1035 12.9817 12.8836 13.2529 12.8836C13.5227 12.8836 13.7361 13.1044 13.7992 13.3667C14.0234 14.3001 14.8636 14.9937 15.8658 14.9937C17.0396 14.9937 17.9911 14.0421 17.9911 12.8683C17.9911 11.6996 17.0478 10.7513 15.8811 10.743C15.8811 10.743 15.881 10.743 15.881 10.743C15.881 10.743 15.881 10.743 15.881 10.743L12.3885 10.743C10.872 10.743 9.64258 9.51358 9.64258 7.99705L9.64258 5.12235C9.64258 4.78113 9.91919 4.50452 10.2604 4.50452L15.2632 4.50452C15.6044 4.50452 15.881 4.78113 15.881 5.12235V7.13271C15.881 7.4039 15.6612 7.62375 15.39 7.62375C15.1202 7.62375 14.9067 7.40301 14.8437 7.14063C14.6194 6.20729 13.7793 5.51368 12.7771 5.51368C11.6033 5.51368 10.6517 6.46524 10.6517 7.63904C10.6517 8.80773 11.595 9.75611 12.7618 9.76434C12.7618 9.76434 12.7618 9.76436 12.7618 9.76437C12.7618 9.76439 12.7618 9.7644 12.7618 9.7644L18.3824 9.7644C18.7237 9.7644 19.0003 10.041 19.0003 10.3822L19.0003 15.385Z" fill="white"/>
<path d="M16.0327 18.4383C16.0343 18.7795 15.759 19.0574 15.4177 19.059L11.2731 19.0779C10.458 19.0817 9.79414 18.4239 9.79041 17.6088L9.7686 12.8463C9.7686 12.8463 9.76859 12.8463 9.76857 12.8463C9.76856 12.8463 9.76855 12.8463 9.76855 12.8463C9.75497 11.6796 8.80229 10.7406 7.6336 10.746C6.45981 10.7514 5.51262 11.7073 5.518 12.8811C5.52259 13.8832 6.22003 14.7202 7.1544 14.9402C7.41706 15.002 7.63877 15.2144 7.64001 15.4843C7.64125 15.7555 7.42241 15.9763 7.15122 15.9776L5.14088 15.9868C4.79967 15.9883 4.52179 15.713 4.52023 15.3718L4.49732 10.369C4.49576 10.0278 4.7711 9.74992 5.11232 9.74836L7.98699 9.7352C9.50351 9.72825 10.7385 10.952 10.7455 12.4685L10.7615 15.961C10.7615 15.961 10.7614 15.961 10.7615 15.961C10.7615 15.961 10.7615 15.961 10.7615 15.961C10.7615 15.961 10.7615 15.961 10.7615 15.9611C10.7748 17.0997 11.6825 18.0214 12.8124 18.0601V18.0777H16.0311L16.0327 18.4383Z" fill="white"/>
</svg>
